<?xml version="1.0" standalone="no"?>
<!DOCTYPE svg PUBLIC "-//W3C//DTD SVG 20010904//EN"
 "http://www.w3.org/TR/2001/REC-SVG-20010904/DTD/svg10.dtd">
<svg version="1.0" xmlns="http://www.w3.org/2000/svg"
 width="2418.000000pt" height="3302.000000pt" viewBox="0 0 2418.000000 3302.000000"
 preserveAspectRatio="xMidYMid meet">

<g transform="translate(0.000000,3302.000000) scale(0.100000,-0.100000)"
fill="#000000" stroke="none">
<path d="M9257 30300 c-90 -23 -177 -83 -227 -155 -74 -107 -80 -222 -80
-1487 l0 -1016 -1172 -5 c-1001 -4 -1189 -7 -1281 -20 -132 -20 -184 -43 -296
-132 l-83 -67 5 -1722 c7 -2077 17 -2375 98 -2851 94 -555 357 -1248 680
-1791 239 -403 492 -729 813 -1049 495 -492 1021 -830 1612 -1035 79 -28 169
-60 199 -71 l55 -20 0 -689 c0 -900 8 -972 114 -1076 103 -101 139 -105 954
-111 l662 -5 0 -544 0 -544 -3224 0 -3224 0 -95 -99 c-125 -131 -152 -184
-152 -301 1 -111 24 -158 148 -290 l92 -98 3227 -1 3226 -1 5 -892 c5 -881 9
-1008 42 -1232 36 -243 169 -586 324 -835 188 -304 507 -614 816 -796 266
-157 581 -276 816 -310 178 -25 798 -16 1089 16 231 25 464 109 728 260 576
331 1013 904 1177 1544 140 546 77 1104 -185 1640 -162 331 -352 579 -619 805
-154 130 -288 217 -476 310 -319 157 -529 214 -910 250 -168 16 -836 29 -1462
30 l-563 0 0 543 0 544 728 7 c754 7 868 12 955 43 61 21 172 124 205 189 40
79 43 128 52 814 9 735 15 807 66 851 11 9 55 28 99 43 320 111 753 338 1085
571 412 290 842 702 1114 1068 436 586 803 1447 981 2297 87 415 103 786 112
2520 5 1145 -3 1716 -27 1895 -14 97 -44 166 -98 222 -49 50 -102 68 -234 83
-117 12 -817 27 -1765 36 l-691 7 -6 131 c-3 72 -8 394 -11 716 -9 975 -27
1456 -57 1580 -25 101 -76 161 -178 209 -47 22 -68 26 -150 26 -86 0 -101 -3
-160 -31 -112 -54 -181 -138 -205 -250 -13 -61 -33 -427 -31 -584 0 -30 0
-448 -2 -927 l-2 -873 -2064 0 -2063 0 -7 573 c-14 1211 -30 1699 -57 1837
-31 155 -142 248 -308 256 -42 2 -93 -1 -114 -6z m7449 -4077 c-31 -2902 -37
-3050 -137 -3454 -128 -520 -390 -1109 -699 -1569 -328 -489 -760 -910 -1215
-1185 -299 -180 -563 -289 -930 -385 -359 -94 -428 -172 -465 -535 -8 -71 -11
-324 -11 -707 l1 -598 -1470 0 -1470 0 0 689 c0 715 -4 797 -42 898 -48 128
-110 162 -498 273 -558 159 -1076 474 -1530 929 -247 248 -393 426 -574 704
-373 571 -614 1212 -710 1887 -77 540 -96 1032 -96 2568 l0 1112 4926 0 4927
0 -7 -627z m-2581 -11122 c213 -25 377 -72 549 -158 363 -181 684 -536 821
-908 261 -705 9 -1520 -601 -1942 -95 -66 -306 -170 -428 -213 -218 -75 -528
-112 -769 -92 -280 24 -480 78 -712 193 -213 105 -391 247 -539 429 -205 251
-287 463 -326 840 -15 148 -29 788 -30 1373 l0 499 968 -5 c643 -3 1001 -8
1067 -16z"/>
<path d="M11590 26064 c-354 -25 -577 -67 -803 -152 -430 -163 -748 -370
-1058 -688 -433 -447 -682 -973 -770 -1634 -20 -142 -16 -516 5 -675 111 -821
518 -1492 1197 -1975 263 -188 593 -336 899 -404 249 -55 385 -69 665 -70 149
0 307 5 370 13 566 65 1013 252 1432 598 140 116 382 367 485 503 402 533 574
1129 538 1863 -19 375 -51 547 -157 817 -142 362 -362 698 -648 986 -225 227
-461 400 -735 539 -307 155 -559 233 -853 265 -105 11 -477 20 -567 14z m1690
-1821 l-141 -148 4 -930 c3 -647 8 -948 16 -989 16 -81 54 -147 113 -196 50
-43 128 -138 128 -157 0 -18 -25 -22 -243 -38 -156 -12 -327 -15 -647 -13
l-435 3 169 173 169 173 -11 657 c-7 361 -15 699 -18 751 l-6 95 -164 -425
c-90 -233 -203 -518 -250 -634 -163 -399 -333 -764 -359 -772 -30 -9 -271 474
-630 1262 -131 286 -244 534 -253 550 -16 28 -18 -9 -33 -620 l-15 -650 95
-113 c162 -192 261 -315 297 -367 l34 -50 -23 -8 c-93 -35 -928 -29 -964 7
-14 14 95 166 266 371 l91 109 0 834 0 833 -106 122 c-111 127 -207 262 -201
281 2 6 33 15 68 19 66 8 827 0 865 -9 17 -4 73 -118 269 -542 307 -664 451
-962 463 -962 15 0 27 18 85 135 85 171 192 425 388 922 100 252 183 461 186
466 2 4 214 7 469 7 l466 0 -142 -147z"/>
<path d="M11470 9343 c0 -5 -2073 -7 -4606 -5 -3793 3 -4606 1 -4602 -10 3 -7
152 -440 331 -963 179 -522 405 -1179 501 -1458 l175 -509 -129 -376 c-71
-208 -298 -870 -504 -1472 -207 -602 -376 -1096 -376 -1099 0 -3 19713 9
19717 13 1 1 -225 662 -503 1470 l-504 1468 501 1462 c276 803 504 1467 506
1474 4 9 -1050 12 -5251 12 -2891 0 -5256 -3 -5256 -7z m6940 -2228 c84 -25
190 -76 190 -91 0 -10 -45 -126 -55 -142 -1 -1 -22 9 -46 22 -203 112 -502
102 -595 -20 -26 -33 -29 -46 -29 -107 l0 -69 48 -43 c53 -48 94 -64 308 -119
203 -52 263 -79 336 -151 51 -50 64 -70 78 -119 24 -84 16 -169 -24 -251 -50
-102 -144 -167 -288 -201 -108 -25 -332 -15 -443 21 -89 28 -180 73 -217 107
l-22 21 35 69 c23 46 39 66 47 61 7 -4 31 -20 54 -36 154 -103 434 -133 581
-61 117 57 146 195 57 273 -54 47 -82 58 -263 106 -222 58 -297 87 -364 140
-78 61 -111 130 -112 234 0 47 7 96 18 129 35 104 157 203 292 237 81 20 337
14 414 -10z m-12288 -440 c147 -247 271 -451 275 -452 4 -2 127 202 273 452
l265 454 78 1 77 0 0 -655 0 -655 -90 0 -90 0 -2 472 -3 472 -232 -389 -232
-390 -44 -3 -45 -3 -236 393 -236 393 0 -472 0 -473 -90 0 -90 0 0 655 0 656
77 -3 78 -3 267 -450z m2248 375 l0 -80 -367 -2 -368 -3 0 -200 0 -200 328 -3
327 -2 0 -75 0 -75 -327 -2 -328 -3 0 -210 0 -210 383 -3 382 -2 0 -80 0 -80
-475 0 -475 0 0 655 0 655 460 0 460 0 0 -80z m980 70 c163 -26 291 -89 395
-194 119 -120 175 -264 175 -451 0 -191 -56 -331 -180 -455 -57 -58 -95 -86
-160 -118 -146 -71 -170 -75 -567 -79 l-353 -5 0 656 0 656 313 0 c171 0 341
-5 377 -10z m1010 -645 l0 -655 -95 0 -95 0 0 655 0 655 95 0 95 0 0 -655z
m530 248 c0 -434 6 -496 50 -582 30 -61 93 -117 158 -142 46 -18 78 -23 162
-23 95 0 111 2 168 28 84 39 141 103 173 193 23 67 24 75 27 501 l3 432 90 0
90 0 -4 -447 c-3 -391 -6 -456 -21 -508 -54 -182 -182 -308 -357 -350 -84 -20
-267 -20 -344 0 -141 36 -247 117 -308 233 -67 128 -70 147 -74 635 l-4 437
95 0 96 0 0 -407z m1687 -43 c145 -245 268 -451 272 -458 5 -8 106 155 277
448 l269 460 77 0 78 0 0 -655 0 -655 -90 0 -90 0 0 478 0 477 -238 -398 -237
-398 -45 3 -44 3 -231 384 -230 385 -3 -467 -2 -467 -90 0 -90 0 0 655 0 656
76 -3 76 -3 265 -445z m2822 -68 c129 -284 263 -579 297 -654 l63 -138 -98 0
-99 0 -72 165 -73 165 -347 0 -347 0 -72 -165 -73 -165 -94 0 c-52 0 -94 2
-94 5 0 5 578 1284 587 1298 2 4 46 7 96 7 l92 -1 234 -517z m1230 495 c147
-43 269 -142 311 -252 28 -74 38 -213 20 -294 -32 -147 -135 -254 -300 -312
-59 -21 -89 -23 -310 -28 l-245 -6 -3 -197 -2 -198 -90 0 -90 0 0 656 0 656
328 -5 c259 -3 338 -7 381 -20z m791 -632 l0 -655 -95 0 -95 0 0 655 0 655 95
0 95 0 0 -655z m-3100 -140 l0 -75 -255 0 -255 0 0 75 0 75 255 0 255 0 0 -75z"/>
<path d="M8850 6475 l0 -497 238 5 c253 5 290 11 397 64 140 70 224 194 245
357 26 211 -65 402 -236 493 -106 57 -155 65 -411 70 l-233 5 0 -497z"/>
<path d="M14928 6617 l-137 -312 140 -3 c76 -1 202 -1 279 0 l139 3 -137 312
c-75 172 -139 313 -142 313 -3 0 -67 -141 -142 -313z"/>
<path d="M16108 6964 c-5 -4 -8 -137 -8 -296 l0 -290 223 4 c258 5 298 14 377
85 62 56 85 113 84 210 -1 131 -73 230 -197 269 -39 12 -106 18 -262 21 -115
3 -213 2 -217 -3z"/>
</g>
</svg>
