<?xml version="1.0" standalone="no"?>
<!DOCTYPE svg PUBLIC "-//W3C//DTD SVG 20010904//EN"
 "http://www.w3.org/TR/2001/REC-SVG-20010904/DTD/svg10.dtd">
<svg version="1.0" xmlns="http://www.w3.org/2000/svg"
 width="500.000000pt" height="500.000000pt" viewBox="0 0 500.000000 500.000000"
 preserveAspectRatio="xMidYMid meet">

<g transform="translate(0.000000,500.000000) scale(0.100000,-0.100000)"
fill="#000000" stroke="none">
<path d="M2122 4317 c-21 -23 -22 -31 -22 -255 l0 -232 -244 0 c-231 0 -245
-1 -270 -21 l-26 -20 0 -383 c0 -416 6 -481 56 -631 96 -288 317 -524 567
-604 l37 -13 0 -158 c0 -209 -9 -200 187 -200 l143 0 0 -105 0 -105 -615 0
-616 0 -24 -25 c-32 -31 -32 -69 0 -100 l24 -25 616 0 615 0 0 -188 c0 -136 4
-204 15 -247 41 -155 152 -273 307 -326 54 -18 79 -20 183 -17 108 4 127 8
188 36 138 63 241 196 268 345 36 195 -72 408 -251 495 -91 44 -145 52 -366
52 l-194 0 0 105 0 105 160 0 c157 0 161 1 185 25 24 24 25 28 25 180 0 139 2
156 18 161 164 52 350 193 451 342 89 132 157 312 180 476 6 43 11 235 11 436
0 337 -1 359 -19 381 -19 24 -20 24 -270 27 l-250 3 -3 233 c-3 214 -5 236
-22 255 -26 29 -76 28 -104 -2 -21 -23 -22 -31 -22 -255 l0 -232 -394 0 -395
0 -3 234 c-3 214 -5 236 -22 255 -26 29 -76 28 -104 -2z m1456 -994 c-4 -334
-6 -363 -27 -438 -86 -304 -289 -525 -539 -584 -85 -21 -92 -36 -92 -207 l0
-144 -280 0 -280 0 0 155 c0 178 5 169 -105 200 -233 66 -431 280 -510 549
-35 121 -45 249 -45 557 l0 269 941 0 941 0 -4 -357z m-411 -1905 c78 -29 152
-103 182 -183 44 -116 15 -251 -72 -338 -137 -137 -397 -123 -512 28 -56 73
-65 118 -65 325 l0 190 205 0 c185 0 210 -2 262 -22z"/>
<path d="M2470 3507 c-91 -31 -156 -71 -220 -136 -204 -208 -202 -549 5 -756
105 -105 227 -155 380 -155 153 0 275 50 380 155 105 105 155 227 155 380 0
54 -6 113 -16 146 -53 179 -194 320 -373 373 -83 24 -230 21 -311 -7z m108
-442 c35 -77 67 -143 71 -148 4 -4 34 60 67 143 l59 150 89 0 90 0 -27 -28
-27 -28 0 -190 c0 -190 0 -191 25 -214 14 -13 25 -27 25 -32 0 -4 -57 -8 -127
-8 l-127 0 32 33 33 34 -3 144 -3 144 -69 -178 c-39 -97 -75 -176 -80 -174 -6
2 -47 82 -91 179 l-80 175 -3 -125 -3 -125 41 -48 c22 -26 40 -50 40 -53 0 -3
-43 -6 -95 -6 -52 0 -95 3 -95 6 0 4 16 26 35 50 l35 42 0 159 0 159 -30 34
c-16 19 -29 39 -30 43 0 4 41 6 92 5 l91 -3 65 -140z"/>
</g>
</svg>
