<?xml version="1.0" standalone="no"?>
<!DOCTYPE svg PUBLIC "-//W3C//DTD SVG 20010904//EN"
 "http://www.w3.org/TR/2001/REC-SVG-20010904/DTD/svg10.dtd">
<svg version="1.0" xmlns="http://www.w3.org/2000/svg"
 width="2889.000000pt" height="3449.000000pt" viewBox="0 0 2889.000000 3449.000000"
 preserveAspectRatio="xMidYMid meet">

<g transform="translate(0.000000,3449.000000) scale(0.100000,-0.100000)"
fill="#000000" stroke="none">
<path d="M11667 30300 c-90 -23 -177 -83 -227 -155 -74 -107 -80 -222 -80
-1487 l0 -1016 -1172 -5 c-1001 -4 -1189 -7 -1281 -20 -132 -20 -184 -43 -296
-132 l-83 -67 5 -1722 c7 -2077 17 -2375 98 -2851 94 -555 357 -1248 680
-1791 239 -403 492 -729 813 -1049 495 -492 1021 -830 1612 -1035 79 -28 169
-60 199 -71 l55 -20 0 -689 c0 -900 8 -972 114 -1076 103 -101 139 -105 954
-111 l662 -5 0 -544 0 -544 -3224 0 -3224 0 -95 -99 c-125 -131 -152 -184
-152 -301 1 -111 24 -158 148 -290 l92 -98 3227 -1 3226 -1 5 -892 c5 -881 9
-1008 42 -1232 36 -243 169 -586 324 -835 188 -304 507 -614 816 -796 266
-157 581 -276 816 -310 178 -25 798 -16 1089 16 231 25 464 109 728 260 576
331 1013 904 1177 1544 140 546 77 1104 -185 1640 -162 331 -352 579 -619 805
-154 130 -288 217 -476 310 -319 157 -529 214 -910 250 -168 16 -836 29 -1462
30 l-563 0 0 543 0 544 728 7 c754 7 868 12 955 43 61 21 172 124 205 189 40
79 43 128 52 814 9 735 15 807 66 851 11 9 55 28 99 43 320 111 753 338 1085
571 412 290 842 702 1114 1068 436 586 803 1447 981 2297 87 415 103 786 112
2520 5 1145 -3 1716 -27 1895 -14 97 -44 166 -98 222 -49 50 -102 68 -234 83
-117 12 -817 27 -1765 36 l-691 7 -6 131 c-3 72 -8 394 -11 716 -9 975 -27
1456 -57 1580 -25 101 -76 161 -178 209 -47 22 -68 26 -150 26 -86 0 -101 -3
-160 -31 -112 -54 -181 -138 -205 -250 -13 -61 -33 -427 -31 -584 0 -30 0
-448 -2 -927 l-2 -873 -2064 0 -2063 0 -7 573 c-14 1211 -30 1699 -57 1837
-31 155 -142 248 -308 256 -42 2 -93 -1 -114 -6z m7449 -4077 c-31 -2902 -37
-3050 -137 -3454 -128 -520 -390 -1109 -699 -1569 -328 -489 -760 -910 -1215
-1185 -299 -180 -563 -289 -930 -385 -359 -94 -428 -172 -465 -535 -8 -71 -11
-324 -11 -707 l1 -598 -1470 0 -1470 0 0 689 c0 715 -4 797 -42 898 -48 128
-110 162 -498 273 -558 159 -1076 474 -1530 929 -247 248 -393 426 -574 704
-373 571 -614 1212 -710 1887 -77 540 -96 1032 -96 2568 l0 1112 4926 0 4927
0 -7 -627z m-2581 -11122 c213 -25 377 -72 549 -158 363 -181 684 -536 821
-908 261 -705 9 -1520 -601 -1942 -95 -66 -306 -170 -428 -213 -218 -75 -528
-112 -769 -92 -280 24 -480 78 -712 193 -213 105 -391 247 -539 429 -205 251
-287 463 -326 840 -15 148 -29 788 -30 1373 l0 499 968 -5 c643 -3 1001 -8
1067 -16z"/>
<path d="M14000 26064 c-354 -25 -577 -67 -803 -152 -430 -163 -748 -370
-1058 -688 -433 -447 -682 -973 -770 -1634 -20 -142 -16 -516 5 -675 111 -821
518 -1492 1197 -1975 263 -188 593 -336 899 -404 249 -55 385 -69 665 -70 149
0 307 5 370 13 566 65 1013 252 1432 598 140 116 382 367 485 503 402 533 574
1129 538 1863 -19 375 -51 547 -157 817 -142 362 -362 698 -648 986 -225 227
-461 400 -735 539 -307 155 -559 233 -853 265 -105 11 -477 20 -567 14z m1690
-1821 l-141 -148 4 -930 c3 -647 8 -948 16 -989 16 -81 54 -147 113 -196 50
-43 128 -138 128 -157 0 -18 -25 -22 -243 -38 -156 -12 -327 -15 -647 -13
l-435 3 169 173 169 173 -11 657 c-7 361 -15 699 -18 751 l-6 95 -164 -425
c-90 -233 -203 -518 -250 -634 -163 -399 -333 -764 -359 -772 -30 -9 -271 474
-630 1262 -131 286 -244 534 -253 550 -16 28 -18 -9 -33 -620 l-15 -650 95
-113 c162 -192 261 -315 297 -367 l34 -50 -23 -8 c-93 -35 -928 -29 -964 7
-14 14 95 166 266 371 l91 109 0 834 0 833 -106 122 c-111 127 -207 262 -201
281 2 6 33 15 68 19 66 8 827 0 865 -9 17 -4 73 -118 269 -542 307 -664 451
-962 463 -962 15 0 27 18 85 135 85 171 192 425 388 922 100 252 183 461 186
466 2 4 214 7 469 7 l466 0 -142 -147z"/>
<path d="M13880 9343 c0 -5 -2073 -7 -4606 -5 -3793 3 -4606 1 -4602 -10 3 -7
152 -440 331 -963 179 -522 405 -1179 501 -1458 l175 -509 -129 -376 c-71
-208 -298 -870 -504 -1472 -207 -602 -376 -1096 -376 -1099 0 -3 19713 9
19717 13 1 1 -225 662 -503 1470 l-504 1468 501 1462 c276 803 504 1467 506
1474 4 9 -1050 12 -5251 12 -2891 0 -5256 -3 -5256 -7z m-4683 -2693 c145
-245 268 -451 272 -458 5 -8 106 155 277 448 l269 460 77 0 78 0 0 -655 0
-655 -90 0 -90 0 0 478 0 477 -238 -398 -237 -398 -45 3 -44 3 -231 384 -230
385 -3 -467 -2 -467 -90 0 -90 0 0 655 0 656 76 -3 76 -3 265 -445z m2253 370
l0 -80 -367 -2 -368 -3 0 -200 0 -200 328 -3 327 -2 0 -75 0 -75 -327 -2 -328
-3 0 -210 0 -210 383 -3 382 -2 0 -80 0 -80 -475 0 -475 0 0 655 0 655 460 0
460 0 0 -80z m980 69 c349 -56 570 -306 570 -644 0 -160 -59 -323 -155 -432
-92 -105 -253 -187 -415 -213 -36 -5 -206 -10 -377 -10 l-313 0 0 655 0 655
313 0 c171 0 341 -5 377 -11z m1010 -644 l0 -655 -95 0 -95 0 0 655 0 655 95
0 95 0 0 -655z m530 248 c0 -434 6 -496 50 -582 30 -61 93 -117 158 -142 46
-18 78 -23 162 -23 95 0 111 2 168 28 84 39 141 103 173 193 23 67 24 75 27
501 l3 432 90 0 90 0 -4 -447 c-3 -391 -6 -456 -21 -508 -54 -182 -182 -308
-357 -350 -84 -20 -267 -20 -344 0 -141 36 -247 117 -308 233 -67 128 -70 147
-74 635 l-4 437 95 0 96 0 0 -407z m1690 -53 l273 -460 31 52 c18 29 139 236
270 461 l239 407 78 0 79 0 0 -655 0 -655 -90 0 -90 0 -2 476 -3 476 -235
-396 -235 -396 -45 1 -45 0 -235 392 -235 392 -3 -472 -2 -473 -90 0 -90 0 0
655 0 655 79 0 78 0 273 -460z m2665 -193 c162 -356 295 -650 295 -653 0 -3
-44 -3 -97 -2 l-97 3 -71 160 -71 160 -349 0 -349 0 -70 -162 -71 -163 -97 0
-97 0 32 73 c19 39 152 334 297 655 l264 583 93 -3 94 -3 294 -648z m1118 638
c160 -28 293 -118 351 -237 37 -76 52 -189 39 -279 -29 -185 -149 -308 -351
-360 -63 -16 -110 -19 -294 -19 l-218 0 0 -200 0 -200 -95 0 -95 0 0 655 0
655 293 0 c205 -1 315 -5 370 -15z m837 -640 l0 -655 -90 0 -90 0 0 655 0 655
90 0 90 0 0 -655z"/>
<path d="M11930 6446 l0 -496 198 0 c124 1 226 6 277 15 150 27 285 117 348
233 76 140 76 353 0 494 -34 62 -124 148 -191 182 -99 50 -150 58 -399 63
l-233 5 0 -496z"/>
<path d="M17917 6869 c-8 -19 -69 -158 -136 -310 -66 -152 -121 -279 -121
-282 0 -4 124 -7 275 -7 151 0 275 3 275 8 0 10 -262 605 -271 616 -4 5 -14
-7 -22 -25z"/>
<path d="M18970 6644 l0 -296 223 4 c204 4 227 6 281 27 122 49 183 147 174
285 -8 114 -56 187 -153 232 -72 33 -157 44 -352 44 l-173 0 0 -296z"/>
</g>
</svg>
